<svg xmlns="http://www.w3.org/2000/svg" xmlns:xlink="http://www.w3.org/1999/xlink" viewBox="0 0 132.96 162.4"><defs><style>.cls-1{fill:#db8b7b;}.cls-2{fill:none;}.cls-3{isolation:isolate;}.cls-4{fill:#b03a3a;}.cls-5{fill:#efb8a8;}.cls-6{fill:#e3a194;}.cls-7{clip-path:url(#clip-path);}.cls-100,.cls-102,.cls-106,.cls-107,.cls-109,.cls-11,.cls-110,.cls-111,.cls-12,.cls-13,.cls-15,.cls-16,.cls-18,.cls-19,.cls-22,.cls-25,.cls-28,.cls-29,.cls-33,.cls-42,.cls-45,.cls-46,.cls-48,.cls-50,.cls-51,.cls-52,.cls-53,.cls-56,.cls-57,.cls-58,.cls-59,.cls-60,.cls-71,.cls-74,.cls-8,.cls-81,.cls-84,.cls-87,.cls-92,.cls-93,.cls-95,.cls-98{mix-blend-mode:multiply;}.cls-8{fill:url(#radial-gradient);}.cls-104,.cls-112,.cls-20,.cls-23,.cls-26,.cls-31,.cls-39,.cls-40,.cls-41,.cls-43,.cls-44,.cls-47,.cls-54,.cls-55,.cls-61,.cls-62,.cls-63,.cls-64,.cls-65,.cls-67,.cls-68,.cls-69,.cls-70,.cls-72,.cls-73,.cls-76,.cls-77,.cls-78,.cls-79,.cls-82,.cls-85,.cls-89,.cls-9,.cls-90,.cls-96{mix-blend-mode:screen;}.cls-9{fill:url(#radial-gradient-2);}.cls-10{clip-path:url(#clip-path-2);}.cls-11{fill:url(#radial-gradient-3);}.cls-12{fill:url(#radial-gradient-4);}.cls-13{fill:url(#radial-gradient-5);}.cls-14{clip-path:url(#clip-path-3);}.cls-15{fill:url(#radial-gradient-6);}.cls-16{fill:url(#radial-gradient-7);}.cls-17{clip-path:url(#clip-path-4);}.cls-18{fill:url(#radial-gradient-8);}.cls-19{fill:url(#radial-gradient-9);}.cls-20{fill:url(#radial-gradient-10);}.cls-21{clip-path:url(#clip-path-5);}.cls-22{fill:url(#radial-gradient-11);}.cls-23{fill:url(#radial-gradient-12);}.cls-24{clip-path:url(#clip-path-6);}.cls-25{fill:url(#radial-gradient-13);}.cls-26{fill:url(#radial-gradient-14);}.cls-27{clip-path:url(#clip-path-7);}.cls-28{fill:url(#radial-gradient-15);}.cls-29{fill:url(#radial-gradient-16);}.cls-30{fill:#eea794;}.cls-31{fill:url(#linear-gradient);}.cls-32{fill:#cf8070;}.cls-34{fill:#c9afa8;}.cls-35{fill:#fcb19c;}.cls-36{fill:#d99182;}.cls-37{fill:#eecfc6;}.cls-38{clip-path:url(#clip-path-8);}.cls-39{fill:url(#radial-gradient-17);}.cls-40{fill:url(#radial-gradient-18);}.cls-41{fill:url(#radial-gradient-19);}.cls-42{fill:url(#radial-gradient-20);}.cls-43{fill:url(#radial-gradient-21);}.cls-44{fill:url(#radial-gradient-22);}.cls-45{fill:url(#radial-gradient-23);}.cls-46{fill:url(#radial-gradient-24);}.cls-47{fill:url(#radial-gradient-25);}.cls-48{fill:url(#radial-gradient-26);}.cls-49{clip-path:url(#clip-path-9);}.cls-50{fill:url(#radial-gradient-28);}.cls-51{fill:url(#radial-gradient-29);}.cls-52{fill:url(#radial-gradient-30);}.cls-53{fill:url(#radial-gradient-31);}.cls-54{fill:url(#radial-gradient-32);}.cls-55{fill:url(#radial-gradient-33);}.cls-56{fill:url(#radial-gradient-34);}.cls-57{fill:url(#radial-gradient-35);}.cls-58{fill:url(#radial-gradient-37);}.cls-59{fill:url(#radial-gradient-38);}.cls-60{fill:url(#radial-gradient-39);}.cls-61{fill:url(#radial-gradient-40);}.cls-62{fill:url(#radial-gradient-41);}.cls-63{fill:url(#radial-gradient-42);}.cls-64{fill:url(#radial-gradient-43);}.cls-65{fill:url(#radial-gradient-44);}.cls-66{clip-path:url(#clip-path-10);}.cls-67{fill:url(#radial-gradient-45);}.cls-68{fill:url(#radial-gradient-46);}.cls-69{fill:url(#radial-gradient-47);}.cls-70{fill:url(#radial-gradient-49);}.cls-71{fill:url(#radial-gradient-50);}.cls-72{fill:url(#radial-gradient-51);}.cls-73{fill:url(#radial-gradient-52);}.cls-74{fill:url(#radial-gradient-53);}.cls-75{clip-path:url(#clip-path-11);}.cls-76{fill:url(#radial-gradient-55);}.cls-77{fill:url(#radial-gradient-56);}.cls-78{fill:url(#radial-gradient-57);}.cls-79{fill:url(#radial-gradient-58);}.cls-80{clip-path:url(#clip-path-12);}.cls-81{fill:url(#radial-gradient-60);}.cls-82{fill:url(#radial-gradient-61);}.cls-83{clip-path:url(#clip-path-13);}.cls-84{fill:url(#radial-gradient-63);}.cls-85{fill:url(#radial-gradient-64);}.cls-86{clip-path:url(#clip-path-14);}.cls-87{fill:url(#radial-gradient-65);}.cls-88{clip-path:url(#clip-path-15);}.cls-89{fill:url(#radial-gradient-66);}.cls-90{fill:url(#radial-gradient-67);}.cls-91{clip-path:url(#clip-path-16);}.cls-92{fill:url(#radial-gradient-68);}.cls-93{fill:url(#radial-gradient-69);}.cls-94{clip-path:url(#clip-path-17);}.cls-95{fill:url(#radial-gradient-70);}.cls-96{fill:url(#radial-gradient-71);}.cls-97{clip-path:url(#clip-path-18);}.cls-98{fill:url(#radial-gradient-72);}.cls-99{clip-path:url(#clip-path-19);}.cls-100{fill:url(#radial-gradient-73);}.cls-101{clip-path:url(#clip-path-20);}.cls-102{fill:url(#radial-gradient-74);}.cls-103{clip-path:url(#clip-path-21);}.cls-104{fill:url(#radial-gradient-75);}.cls-105{clip-path:url(#clip-path-22);}.cls-106{fill:url(#radial-gradient-76);}.cls-107{fill:url(#radial-gradient-77);}.cls-108{clip-path:url(#clip-path-23);}.cls-109{fill:url(#radial-gradient-78);}.cls-110{fill:url(#radial-gradient-79);}.cls-111{fill:url(#radial-gradient-80);}.cls-112{fill:url(#radial-gradient-81);}</style><clipPath id="clip-path" transform="translate(0 8.65)"><path class="cls-1" d="M59.47,56.9c.26.44.34.87.53,1.08.4.43.86.24,1.22-1a3.25,3.25,0,0,0-.46-2.79c-.46-.53-1.14-.61-1.92.31s-3.14,4.12-3.17,7.7c.21.78.41,1.47.59,2.08C59.24,59.42,59.47,56.9,59.47,56.9Z"/></clipPath><radialGradient id="radial-gradient" cx="-955.06" cy="-112.17" r="6.17" gradientTransform="matrix(0.33, 0.15, -0.62, 1.39, 305.66, 356.1)" gradientUnits="userSpaceOnUse"><stop offset="0.04" stop-color="#d19a9a"/><stop offset="0.3" stop-color="#e1bdbd"/><stop offset="0.48" stop-color="#edd7d7"/><stop offset="0.69" stop-color="#f6ebeb"/><stop offset="1" stop-color="#fff"/></radialGradient><radialGradient id="radial-gradient-2" cx="-858.58" cy="-260.88" r="3.59" gradientTransform="matrix(0.36, -0.05, 0.11, 0.81, 399.62, 227.59)" gradientUnits="userSpaceOnUse"><stop offset="0.12" stop-color="#685f5f"/><stop offset="0.36" stop-color="#403b3b"/><stop offset="0.54" stop-color="#232020"/><stop offset="0.77" stop-color="#0e0d0d"/><stop offset="1"/></radialGradient><clipPath id="clip-path-2" transform="translate(0 8.65)"><path class="cls-2" d="M59.08,67a8.12,8.12,0,0,1,2-4.06,3,3,0,0,1,2.8-1.2A1.85,1.85,0,0,1,64,60.07a1.54,1.54,0,0,1-1.36.3,1.39,1.39,0,0,1-.56-.33l-.09.2s-.6.93-1.52-.09A3.88,3.88,0,0,1,60,58c-.19-.21-.27-.64-.53-1.08,0,0-.23,2.52-3.21,7.42.42,1.37.73,2.24.73,2.24Z"/></clipPath><radialGradient id="radial-gradient-3" cx="-267.88" cy="-266.74" r="7.56" gradientTransform="matrix(0.21, -0.72, 1.46, 0.43, 508.78, -18.02)" gradientUnits="userSpaceOnUse"><stop offset="0.16" stop-color="#eed9d9"/><stop offset="0.37" stop-color="#f3e4e4"/><stop offset="0.48" stop-color="#f7eded"/><stop offset="0.63" stop-color="#fbf6f6"/><stop offset="0.8" stop-color="#fefcfc"/><stop offset="1" stop-color="#fff"/></radialGradient><radialGradient id="radial-gradient-4" cx="-271.38" cy="-265.2" r="3.72" xlink:href="#radial-gradient-3"/><radialGradient id="radial-gradient-5" cx="-278.38" cy="-267.85" r="3.72" xlink:href="#radial-gradient-3"/><clipPath id="clip-path-3" transform="translate(0 8.65)"><path class="cls-2" d="M64.85,62.43a1.53,1.53,0,0,1-1-.71,3,3,0,0,0-2.8,1.2,8.12,8.12,0,0,0-2,4.06l2,.37h0c.41-.13,7.71-2.35,5.56-5.85C66.09,62.21,65.45,62.61,64.85,62.43Z"/></clipPath><radialGradient id="radial-gradient-6" cx="-11.54" cy="-214.71" r="6.17" gradientTransform="matrix(-0.12, -0.34, 1.43, -0.51, 367.8, -45.12)" xlink:href="#radial-gradient"/><radialGradient id="radial-gradient-7" cx="-44.88" cy="-401.46" r="6.17" gradientTransform="matrix(0.02, -0.36, 0.75, 0.04, 368.72, 61.59)" xlink:href="#radial-gradient"/><clipPath id="clip-path-4" transform="translate(0 8.65)"><path class="cls-2" d="M61.22,57c-.36,1.2-.82,1.39-1.22,1a3.88,3.88,0,0,0,.44,2.17c.92,1,1.52.09,1.52.09l.09-.2c1.52-3.35,2.46-4.93,1.63-5.95l-.22,0,.22,0a3,3,0,0,0-1.18-.73c-.76-.3-1.34.11-1.74.87A3.25,3.25,0,0,1,61.22,57Z"/></clipPath><radialGradient id="radial-gradient-8" cx="-857.99" cy="-261.41" r="4.36" gradientTransform="matrix(0.36, -0.05, 0.11, 0.81, 399.62, 227.59)" xlink:href="#radial-gradient"/><radialGradient id="radial-gradient-9" cx="-943.22" cy="-162.13" r="4.36" gradientTransform="matrix(0.35, 0.09, -0.18, 0.7, 365.46, 255.65)" xlink:href="#radial-gradient"/><radialGradient id="radial-gradient-10" cx="-934.6" cy="-139.29" r="4.36" gradientTransform="matrix(0.35, 0.09, -0.37, 1.45, 342.65, 342.58)" xlink:href="#radial-gradient-2"/><clipPath id="clip-path-5" transform="translate(0 8.65)"><path class="cls-2" d="M64,60.07a6.3,6.3,0,0,0,2.55-4c.13-1.24-.56-2.23-2.84-2,.83,1-.11,2.6-1.63,5.95a1.39,1.39,0,0,0,.56.33A1.54,1.54,0,0,0,64,60.07Z"/></clipPath><radialGradient id="radial-gradient-11" cx="-942.42" cy="-113.54" r="6.17" xlink:href="#radial-gradient"/><radialGradient id="radial-gradient-12" cx="-934.32" cy="-111.49" r="4.33" gradientTransform="matrix(0.33, 0.15, -0.5, 1.12, 321.09, 321.47)" xlink:href="#radial-gradient-2"/><clipPath id="clip-path-6" transform="translate(0 8.65)"><path class="cls-2" d="M64,60.07a1.85,1.85,0,0,0-.08,1.65,1.53,1.53,0,0,0,1,.71c.6.18,1.24-.22,1.78-.93,1.25-1.6,1.89-4.75-.11-5.39A6.3,6.3,0,0,1,64,60.07Z"/></clipPath><radialGradient id="radial-gradient-13" cx="-898.47" cy="-65.51" r="4.75" gradientTransform="matrix(0.27, 0.24, -1.02, 1.13, 243.11, 351.84)" xlink:href="#radial-gradient"/><radialGradient id="radial-gradient-14" cx="-927.83" cy="-100.35" r="4.75" gradientTransform="matrix(0.33, 0.17, -0.5, 0.99, 319.32, 312.42)" xlink:href="#radial-gradient-2"/><clipPath id="clip-path-7" transform="translate(0 8.65)"><path class="cls-2" d="M66.63,61.5c1.25-1.6,1.89-4.75-.11-5.39.13-1.24-.56-2.23-2.84-2a3,3,0,0,0-1.18-.73c-.76-.3-1.34.11-1.74.87-.46-.53-1.14-.61-1.92.31s-3.14,4.12-3.17,7.7c.21.78.41,1.47.59,2.08.42,1.37.73,2.24.73,2.24l2.09.42,2,.37h0C61.48,67.22,68.78,65,66.63,61.5Z"/></clipPath><radialGradient id="radial-gradient-15" cx="-748.28" cy="-64.77" r="11.73" gradientTransform="matrix(0.42, 1.25, -0.31, 0.11, 354.3, 1007.14)" xlink:href="#radial-gradient"/><radialGradient id="radial-gradient-16" cx="-754.98" cy="-36.26" r="11.74" gradientTransform="matrix(-0.18, 1.31, -0.33, -0.04, -88.2, 1051.32)" xlink:href="#radial-gradient"/><linearGradient id="linear-gradient" x1="30.4" y1="-7.17" x2="50.92" y2="17.45" gradientTransform="matrix(0.83, 0.56, -0.56, 0.83, 58.5, -19.56)" gradientUnits="userSpaceOnUse"><stop offset="0" stop-color="#fff"/><stop offset="1"/></linearGradient><clipPath id="clip-path-8" transform="translate(0 8.65)"><path class="cls-2" d="M115,38.73a48.74,48.74,0,0,0,2.27-11.23C118.74,11.21,92,.7,76.66,9S65.3,31.15,68.08,38.88c0,0,.83,4-3,5.49-1.24.48-1.32,3.34,2.34,4.77a2.55,2.55,0,0,1-.13,3,.34.34,0,0,0,0,.18c.08.24.46.71,2.31,1-2,1.15-.17,1.32,1.23,3.8.78,1.38,1.42,7,6.23,6.62a18.17,18.17,0,0,0,6.72-.85,23.82,23.82,0,0,0,11.73-8.17C99.94,50.11,107.49,49.55,115,38.73Zm-21,6.19a4.43,4.43,0,0,0,1.19-3.48c2.23-2,2.95-.17,2.59.88C96.72,45.24,95.12,46.05,93.93,44.92Z"/></clipPath><radialGradient id="radial-gradient-17" cx="-783.52" cy="-42.51" r="28.85" gradientTransform="matrix(0.2, 0.66, -1.02, 0.31, 198.76, 541.21)" xlink:href="#radial-gradient-2"/><radialGradient id="radial-gradient-18" cx="-639.31" cy="-24.96" r="8.93" gradientTransform="matrix(0.33, 1.09, -1.29, 0.39, 254.69, 758.06)" xlink:href="#radial-gradient-2"/><radialGradient id="radial-gradient-19" cx="-655.54" cy="-23.96" r="8.94" gradientTransform="matrix(0.28, 0.92, -1.29, 0.39, 231.61, 679.97)" xlink:href="#radial-gradient-2"/><radialGradient id="radial-gradient-20" cx="-646.98" cy="-19.78" r="6.44" gradientTransform="matrix(0.33, 1.09, -1.02, 0.31, 263.27, 756.36)" gradientUnits="userSpaceOnUse"><stop offset="0.18" stop-color="#e1bdbd"/><stop offset="0.48" stop-color="#edd7d7"/><stop offset="0.69" stop-color="#f6ebeb"/><stop offset="1" stop-color="#fff"/></radialGradient><radialGradient id="radial-gradient-21" cx="-543.65" cy="167.36" r="3.4" gradientTransform="matrix(-0.84, 0.78, -0.54, -0.58, -296.89, 565.42)" xlink:href="#radial-gradient-2"/><radialGradient id="radial-gradient-22" cx="-548.35" cy="157.18" r="3.4" gradientTransform="matrix(-0.84, 0.78, -0.54, -0.58, -296.89, 565.42)" xlink:href="#radial-gradient-2"/><radialGradient id="radial-gradient-23" cx="-642.04" cy="-219.58" r="28.85" gradientTransform="matrix(0.68, 0.11, -0.17, 1.05, 508.75, 341.73)" xlink:href="#radial-gradient-3"/><radialGradient id="radial-gradient-24" cx="-673.59" cy="-216.46" r="18.65" gradientTransform="matrix(0.68, 0.11, -0.17, 1.05, 508.75, 341.73)" xlink:href="#radial-gradient-3"/><radialGradient id="radial-gradient-25" cx="-786.09" cy="-67.07" r="13.67" gradientTransform="matrix(0.34, 0.6, -0.92, 0.53, 282.88, 519.57)" gradientUnits="userSpaceOnUse"><stop offset="0" stop-color="#fff"/><stop offset="0.24" stop-color="#685f5f"/><stop offset="0.36" stop-color="#403b3b"/><stop offset="0.54" stop-color="#232020"/><stop offset="0.77" stop-color="#0e0d0d"/><stop offset="1"/></radialGradient><radialGradient id="radial-gradient-26" cx="-376.01" cy="49.51" r="10.14" gradientTransform="matrix(-1.04, -0.33, 0.74, -2.35, -320.98, 49.9)" xlink:href="#radial-gradient-3"/><clipPath id="clip-path-9" transform="translate(0 8.65)"><path class="cls-2" d="M104.2,74c-1.38-7.87-.79-11.86,1.7-17.77,2.15-5.15,6.34-9.36,9.06-17.48-7.47,10.82-15,11.38-19.42,16a23.82,23.82,0,0,1-11.73,8.17l0,.08c-.71,1.39-6.59,3.07-14.44,8.06,9.54-1.56,18.14.94,21.23,2.68C98,77.9,91.57,101.2,79,87.88c-1.17-1.77-17.52-1.82-23.5-5.36-.84.86-1.67,1.79-2.51,2.75Q51,87.48,49.12,90C46.65,85.9,49,78.15,41.9,70.51,34,62,22.27,56.58,21.57,48.29c-.81,1.09-1.77,2.27-2.74,3.7l.1.07c2.12,8.34,13,12.4,20.62,22,3.06,3.84,4,8.53,4.78,12.79A41.87,41.87,0,0,0,46,94.38h0c-.82,1.23-1.63,2.5-2.42,3.84a75.42,75.42,0,0,1,7,12.44c4,8.9,1.82,25.9-8.49,24.79,1,.8,2.06,1.55,3.13,2.24,11.87,7.62,27.11-6.26,39-20.81S105.94,83.83,104.2,74Z"/></clipPath><radialGradient id="radial-gradient-28" cx="-777.09" cy="-40.7" r="14.58" gradientTransform="matrix(0.26, 0.64, -0.99, 0.4, 245.71, 570.52)" xlink:href="#radial-gradient"/><radialGradient id="radial-gradient-29" cx="-750.06" cy="16.75" r="14.58" gradientTransform="matrix(0.05, 0.69, -1.38, 0.09, 129.73, 584.83)" xlink:href="#radial-gradient"/><radialGradient id="radial-gradient-30" cx="-709.47" cy="40.64" r="14.58" gradientTransform="matrix(-0.1, 0.68, -1.52, -0.23, 51.45, 574.07)" xlink:href="#radial-gradient"/><radialGradient id="radial-gradient-31" cx="-710.68" cy="50.26" r="11.37" gradientTransform="matrix(-0.1, 0.68, -1.38, -0.21, 55.69, 575.14)" xlink:href="#radial-gradient"/><radialGradient id="radial-gradient-32" cx="-646.78" cy="-57.12" r="11.72" gradientTransform="matrix(0.68, 0.72, -1.12, 1.06, 425.46, 619)" xlink:href="#radial-gradient-2"/><radialGradient id="radial-gradient-33" cx="-544.58" cy="109.86" r="11.72" gradientTransform="matrix(-0.53, 0.83, -1.3, -0.83, -96.93, 683.37)" xlink:href="#radial-gradient-2"/><radialGradient id="radial-gradient-34" cx="-337.66" cy="4.09" r="17.59" gradientTransform="matrix(-0.73, -0.66, 1.64, -1.84, -161.54, -106.43)" xlink:href="#radial-gradient-3"/><radialGradient id="radial-gradient-35" cx="-350.79" cy="4.89" r="11.96" gradientTransform="matrix(-0.88, -0.64, 1.44, -2, -242.1, -102.48)" xlink:href="#radial-gradient-3"/><radialGradient id="radial-gradient-37" cx="-441.08" cy="105.88" r="11.72" gradientTransform="matrix(-0.82, 0.22, -0.46, -1.7, -267.97, 383.25)" xlink:href="#radial-gradient"/><radialGradient id="radial-gradient-38" cx="-125.85" cy="68.23" r="11.72" gradientTransform="matrix(-0.36, -0.25, 1, -1.45, -68.43, 160.74)" xlink:href="#radial-gradient"/><radialGradient id="radial-gradient-39" cx="-22.49" cy="70.15" r="10.49" gradientTransform="matrix(-0.28, -0.2, 1, -1.45, -28.99, 188.81)" xlink:href="#radial-gradient"/><radialGradient id="radial-gradient-40" cx="-432.2" cy="121.6" r="6.86" gradientTransform="matrix(-0.42, 0.15, -0.61, -1.65, -59.43, 344.16)" xlink:href="#radial-gradient-2"/><radialGradient id="radial-gradient-41" cx="-581.54" cy="119.02" r="6.86" gradientTransform="matrix(-0.32, 0.31, -1.23, -1.26, 3.37, 399.77)" xlink:href="#radial-gradient-2"/><radialGradient id="radial-gradient-42" cx="-624.73" cy="119.4" r="6.85" gradientTransform="matrix(-0.28, 0.35, -1.38, -1.09, 25.81, 410.75)" xlink:href="#radial-gradient-2"/><radialGradient id="radial-gradient-43" cx="-622.67" cy="128.84" r="6.85" gradientTransform="matrix(-0.26, 0.26, -1.25, -1.24, 27.43, 378.76)" xlink:href="#radial-gradient-2"/><radialGradient id="radial-gradient-44" cx="-721.99" cy="40" r="11.72" gradientTransform="matrix(-0.18, 0.53, -1.27, -0.44, 2.7, 472.95)" xlink:href="#radial-gradient-2"/><clipPath id="clip-path-10" transform="translate(0 8.65)"><path class="cls-2" d="M90.62,73.76C87.53,72,78.93,69.52,69.39,71.08a42.13,42.13,0,0,0-6.79,1.69,60.5,60.5,0,0,0-2.55-8.56c-.72-2-1.61-4.27-2.73-6.85,0,0,.22-.1.56-.29l.72-.46a5,5,0,0,0,.52-5.29c-.63-1.84-.79-3-.46-3.68a1.13,1.13,0,0,1,.33-.39,5.79,5.79,0,0,0-2.76-2,7.19,7.19,0,0,0-3.76-.13,7.32,7.32,0,0,0-3,1.47,12.94,12.94,0,0,0-1.11,1.21A11.56,11.56,0,0,0,48,51.69,34.38,34.38,0,0,0,50.24,58,34.78,34.78,0,0,0,50.6,74.8a17.12,17.12,0,0,0,3.49,6.63,6.58,6.58,0,0,0,1.38,1.09c6,3.54,22.33,3.59,23.5,5.36C91.57,101.2,98,77.9,90.62,73.76Z"/></clipPath><radialGradient id="radial-gradient-45" cx="-752.87" cy="22.58" r="11.72" gradientTransform="matrix(-0.09, 0.55, -1.52, -0.26, 35.03, 493.99)" xlink:href="#radial-gradient-2"/><radialGradient id="radial-gradient-46" cx="-431.71" cy="85.6" r="11.72" gradientTransform="matrix(-0.62, 0.12, -0.29, -1.51, -190.45, 249.55)" xlink:href="#radial-gradient-2"/><radialGradient id="radial-gradient-47" cx="-372.68" cy="77.9" r="5.42" gradientTransform="matrix(-0.63, -0.03, 0.08, -1.54, -188.36, 172.95)" xlink:href="#radial-gradient-25"/><radialGradient id="radial-gradient-49" cx="-854.91" cy="27.3" r="8.89" gradientTransform="matrix(0.02, 0.49, -1.35, 0.05, 105.93, 459.63)" xlink:href="#radial-gradient-2"/><radialGradient id="radial-gradient-50" cx="-755.63" cy="52.76" r="7.11" gradientTransform="matrix(-0.12, 0.55, -1.32, -0.28, 39.43, 485.06)" xlink:href="#radial-gradient-3"/><radialGradient id="radial-gradient-51" cx="-637.27" cy="20.33" r="11.72" gradientTransform="matrix(-0.05, 0.91, -1.35, -0.07, 59.92, 671.86)" xlink:href="#radial-gradient-2"/><radialGradient id="radial-gradient-52" cx="-771.51" cy="13.96" r="9.25" gradientTransform="matrix(-0.03, 0.56, -1.35, -0.08, 70.99, 503.99)" xlink:href="#radial-gradient-25"/><radialGradient id="radial-gradient-53" cx="-618.05" cy="30.28" r="9.25" gradientTransform="matrix(-0.06, 1.06, -1.35, -0.08, 55.93, 743.77)" gradientUnits="userSpaceOnUse"><stop offset="0.08" stop-color="#ffbaba"/><stop offset="1" stop-color="#fff"/></radialGradient><clipPath id="clip-path-11" transform="translate(0 8.65)"><path class="cls-2" d="M50.64,110.66a75.42,75.42,0,0,0-7-12.44,51.23,51.23,0,0,0-9-10.14,14.21,14.21,0,0,0-5.3-3,10.09,10.09,0,0,0-6,.21c-.93,3.91,0,10.93.54,15.49.11,1,.19,1.94.32,2.91a47.4,47.4,0,0,0,1.57,7h0a50.14,50.14,0,0,0,16.47,24.71C52.46,136.56,54.59,119.56,50.64,110.66Z"/></clipPath><radialGradient id="radial-gradient-55" cx="-499.25" cy="103.89" r="11.72" gradientTransform="matrix(-0.82, 0.54, -1.29, -1.98, -237.36, 573.32)" xlink:href="#radial-gradient-2"/><radialGradient id="radial-gradient-56" cx="-630.86" cy="61.19" r="7.68" gradientTransform="matrix(0.03, 0.98, -2.36, 0.06, 187.62, 703.55)" xlink:href="#radial-gradient-2"/><radialGradient id="radial-gradient-57" cx="-629.96" cy="68.7" r="4.81" gradientTransform="matrix(0.03, 0.98, -1.9, 0.05, 173.32, 703.8)" xlink:href="#radial-gradient-25"/><radialGradient id="radial-gradient-58" cx="-412.79" cy="103.8" r="9.13" gradientTransform="matrix(-0.96, 0.22, -0.52, -2.3, -319.76, 440.13)" xlink:href="#radial-gradient-2"/><clipPath id="clip-path-12" transform="translate(0 8.65)"><path class="cls-2" d="M23.79,100.8c-.5-4.56-1.47-11.58-.54-15.49-3.1,1.16-6.38,4.31-9.59,11.41-.52,1.15-1,2.4-1.55,3.76s-1.11,3.07-1.65,4.82c-1.28,3.13-1.93,6.13-1.11,8.06,3.38.73,8.09-3,11.27-6,2.07-2,3.49-3.64,3.49-3.64C24,102.74,23.9,101.77,23.79,100.8Z"/></clipPath><radialGradient id="radial-gradient-60" cx="-408.68" cy="112.95" r="6.7" gradientTransform="matrix(-0.97, 0.16, -0.38, -2.33, -329.07, 434.96)" xlink:href="#radial-gradient"/><radialGradient id="radial-gradient-61" cx="-308.05" cy="85.26" r="6.7" gradientTransform="matrix(-0.91, -0.39, 1.28, -3.01, -374.07, 234.25)" xlink:href="#radial-gradient-2"/><clipPath id="clip-path-13" transform="translate(0 8.65)"><path class="cls-2" d="M10.46,105.3c.54-1.75,1.09-3.34,1.65-4.82-1.25-.52-1-2.47-1-2.47-.23,1.94-2.53,5.82-3.94,2.57-2,6-.58,11.29.88,12.26a3.42,3.42,0,0,0,1.27.52C8.53,111.43,9.18,108.43,10.46,105.3Z"/></clipPath><radialGradient id="radial-gradient-63" cx="-280.32" cy="97.01" r="4.99" gradientTransform="matrix(-0.79, -0.31, 0.56, -1.44, -264.57, 159.56)" xlink:href="#radial-gradient"/><radialGradient id="radial-gradient-64" cx="-328.22" cy="104.76" r="4.98" gradientTransform="matrix(-0.49, 0.04, -0.16, -1.75, -139.11, 304.79)" xlink:href="#radial-gradient-2"/><clipPath id="clip-path-14" transform="translate(0 8.65)"><path class="cls-2" d="M13.66,96.72c-.91-3.71-2.83-.09-2.93.1h0A9,9,0,0,1,11.14,98s-.28,1.95,1,2.47C12.62,99.12,13.14,97.87,13.66,96.72Z"/></clipPath><radialGradient id="radial-gradient-65" cx="-352.16" cy="122.6" r="2" gradientTransform="matrix(-0.85, 0.04, -0.07, -1.55, -279.93, 299.68)" xlink:href="#radial-gradient"/><clipPath id="clip-path-15" transform="translate(0 8.65)"><path class="cls-2" d="M8.82,96.87a20.81,20.81,0,0,0-1.62,3.71c1.41,3.25,3.71-.63,3.94-2.57a9,9,0,0,0-.41-1.19C9.94,95.44,8.82,96.87,8.82,96.87Z"/></clipPath><radialGradient id="radial-gradient-66" cx="-335.56" cy="173.6" r="2.55" gradientTransform="matrix(-0.49, 0.05, -0.09, -1.02, -139.27, 290)" xlink:href="#radial-gradient-2"/><radialGradient id="radial-gradient-67" cx="-174.79" cy="100.19" r="2.55" gradientTransform="matrix(-0.46, -0.2, 0.53, -1.25, -124.92, 189.29)" xlink:href="#radial-gradient-2"/><clipPath id="clip-path-16" transform="translate(0 8.65)"><path class="cls-2" d="M54.09,81.43a6.58,6.58,0,0,0,1.38,1.09c-.84.86-1.67,1.79-2.51,2.75-2.84-1.61-4.13-6-2.36-10.47A17.12,17.12,0,0,0,54.09,81.43Z"/></clipPath><radialGradient id="radial-gradient-68" cx="-784.9" cy="-208.02" r="11.74" gradientTransform="matrix(0.59, 0.76, -0.26, 0.2, 462.39, 720.89)" xlink:href="#radial-gradient"/><radialGradient id="radial-gradient-69" cx="-678.1" cy="434.62" r="11.74" gradientTransform="matrix(-0.66, 0.71, -0.24, -0.22, -284.82, 660.48)" xlink:href="#radial-gradient"/><clipPath id="clip-path-17" transform="translate(0 8.65)"><path class="cls-2" d="M52.47,45.09a7.19,7.19,0,0,1,3.76.13,7.28,7.28,0,0,1,.45-.66c-.9-1.69-2.22-1.78-3.6-.35C53,44.29,52.71,44.74,52.47,45.09Z"/></clipPath><radialGradient id="radial-gradient-70" cx="-781.03" cy="-93.07" r="4.42" gradientTransform="matrix(0.47, 0.3, -0.73, 1.14, 356.97, 386.09)" xlink:href="#radial-gradient"/><radialGradient id="radial-gradient-71" cx="-836.87" cy="-37.26" r="3.63" gradientTransform="matrix(0.28, 0.48, -1.16, 0.68, 246.92, 471.7)" xlink:href="#radial-gradient-2"/><clipPath id="clip-path-18" transform="translate(0 8.65)"><path class="cls-2" d="M52.47,45.09c.24-.35.53-.8.61-.88-1.27-1.62-2.61.08-3.3,1.5a8.8,8.8,0,0,0-.3.85A7.32,7.32,0,0,1,52.47,45.09Z"/></clipPath><radialGradient id="radial-gradient-72" cx="-754.35" cy="-108.24" r="3.95" gradientTransform="matrix(0.51, 0.22, -0.53, 1.24, 384.29, 343.85)" xlink:href="#radial-gradient"/><clipPath id="clip-path-19" transform="translate(0 8.65)"><path class="cls-2" d="M58.66,47.64c-.33.68-.17,1.84.46,3.68a5,5,0,0,1-.52,5.29,9.81,9.81,0,0,0,1.08-.87,4.79,4.79,0,0,0,1.72-3.93,6,6,0,0,0-.86-2.62A3.62,3.62,0,0,0,58.66,47.64Z"/></clipPath><radialGradient id="radial-gradient-73" cx="-595.32" cy="-146.17" r="4.43" gradientTransform="matrix(0.55, -0.09, 0.22, 1.33, 417.99, 189.31)" xlink:href="#radial-gradient"/><clipPath id="clip-path-20" transform="translate(0 8.65)"><path class="cls-2" d="M59.78,47a1.34,1.34,0,0,0-1.12.69,3.62,3.62,0,0,1,1.88,1.55c.54-2.11-.29-4.37-1.52-5.12A2.34,2.34,0,0,1,59.78,47Z"/></clipPath><radialGradient id="radial-gradient-74" cx="-434.39" cy="-146.22" r="4.42" gradientTransform="matrix(0.44, -0.35, 0.83, 1.06, 371.5, 52.84)" xlink:href="#radial-gradient"/><clipPath id="clip-path-21" transform="translate(0 8.65)"><path class="cls-2" d="M56.23,45.22a5.79,5.79,0,0,1,2.76,2,1.53,1.53,0,0,1,.79-.3A2.34,2.34,0,0,0,59,44.07a1.76,1.76,0,0,0-2.34.49A7.28,7.28,0,0,0,56.23,45.22Z"/></clipPath><radialGradient id="radial-gradient-75" cx="-796.91" cy="-51.03" r="2.75" gradientTransform="matrix(0.36, 0.5, -1.01, 0.72, 290.31, 478.99)" xlink:href="#radial-gradient-2"/><clipPath id="clip-path-22" transform="translate(0 8.65)"><path class="cls-2" d="M25.68,110.73h0c-1.29,1.89-3.82,1.68-5.06-3.39,2.07-2,3.49-3.64,3.49-3.64A47.4,47.4,0,0,0,25.68,110.73Z"/></clipPath><radialGradient id="radial-gradient-76" cx="-744.7" cy="-7.97" r="11.74" gradientTransform="matrix(0.27, 0.92, -0.32, 0.09, 225.87, 796.33)" xlink:href="#radial-gradient"/><radialGradient id="radial-gradient-77" cx="-653.83" cy="442.67" r="11.74" gradientTransform="matrix(-0.62, 0.74, -0.25, -0.21, -270.65, 681.89)" xlink:href="#radial-gradient"/><clipPath id="clip-path-23" transform="translate(0 8.65)"><path class="cls-2" d="M46,94.38c-.82,1.23-1.63,2.5-2.42,3.84a51.23,51.23,0,0,0-9-10.14c2.73-3.59,6.32-4.12,9.77-1.27A41.87,41.87,0,0,0,46,94.38Z"/></clipPath><radialGradient id="radial-gradient-78" cx="-675.65" cy="406.94" r="11.73" gradientTransform="matrix(-0.62, 0.74, -0.25, -0.21, -270.65, 681.89)" xlink:href="#radial-gradient"/><radialGradient id="radial-gradient-79" cx="-778.5" cy="-30.2" r="11.74" gradientTransform="matrix(0.29, 0.92, -0.32, 0.1, 258.57, 810.21)" xlink:href="#radial-gradient"/><radialGradient id="radial-gradient-80" cx="-733.87" cy="-203.38" r="11.74" gradientTransform="matrix(0.82, 0.84, -0.33, 0.32, 574.11, 779.54)" xlink:href="#radial-gradient"/><radialGradient id="radial-gradient-81" cx="-846.16" cy="-219.05" r="11.74" gradientTransform="matrix(0.46, 0.47, -0.33, 0.32, 352.18, 551.73)" xlink:href="#radial-gradient-2"/></defs><g class="cls-3"><g id="Calque_2" data-name="Calque 2"><g id="fetus"><path class="cls-4" d="M37.62,144c65.51,25,93.9-59.87,95-82.91C134,34,131.53,8.4,105.76,1.14,55.8-12.93-59.27,107.05,37.62,144Z" transform="translate(0 8.65)"/><path class="cls-5" d="M61.22,57c-.36,1.2-.82,1.39-1.22,1a3.88,3.88,0,0,0,.44,2.17c.92,1,1.52.09,1.52.09l.09-.2c1.52-3.35,2.46-4.93,1.63-5.95l-.22,0,.22,0a3,3,0,0,0-1.18-.73c-.76-.3-1.34.11-1.74.87A3.25,3.25,0,0,1,61.22,57Z" transform="translate(0 8.65)"/><path class="cls-5" d="M64,60.07a6.3,6.3,0,0,0,2.55-4c.13-1.24-.56-2.23-2.84-2,.83,1-.11,2.6-1.63,5.95a1.39,1.39,0,0,0,.56.33A1.54,1.54,0,0,0,64,60.07Z" transform="translate(0 8.65)"/><path class="cls-5" d="M64,60.07a1.85,1.85,0,0,0-.08,1.65,1.53,1.53,0,0,0,1,.71c.6.18,1.24-.22,1.78-.93,1.25-1.6,1.89-4.75-.11-5.39A6.3,6.3,0,0,1,64,60.07Z" transform="translate(0 8.65)"/><path class="cls-1" d="M59.08,67a8.12,8.12,0,0,1,2-4.06,3,3,0,0,1,2.8-1.2A1.85,1.85,0,0,1,64,60.07a1.54,1.54,0,0,1-1.36.3,1.39,1.39,0,0,1-.56-.33l-.09.2s-.6.93-1.52-.09A3.88,3.88,0,0,1,60,58c-.19-.21-.27-.64-.53-1.08,0,0-.23,2.52-3.21,7.42.42,1.37.73,2.24.73,2.24Z" transform="translate(0 8.65)"/><path class="cls-6" d="M64.85,62.43a1.53,1.53,0,0,1-1-.71,3,3,0,0,0-2.8,1.2,8.12,8.12,0,0,0-2,4.06l2,.37h0c.41-.13,7.71-2.35,5.56-5.85C66.09,62.21,65.45,62.61,64.85,62.43Z" transform="translate(0 8.65)"/><path class="cls-1" d="M59.47,56.9c.26.44.34.87.53,1.08.4.43.86.24,1.22-1a3.25,3.25,0,0,0-.46-2.79c-.46-.53-1.14-.61-1.92.31s-3.14,4.12-3.17,7.7c.21.78.41,1.47.59,2.08C59.24,59.42,59.47,56.9,59.47,56.9Z" transform="translate(0 8.65)"/><g class="cls-7"><path class="cls-8" d="M59.42,58.12c-2.13,4.72-4.77,8.14-5.91,7.63s-.32-4.76,1.8-9.49,4.77-8.14,5.91-7.62S61.55,53.39,59.42,58.12Z" transform="translate(0 8.65)"/><path class="cls-9" d="M62.15,55.53c.21,1.62-.21,3-.93,3.09s-1.47-1.14-1.68-2.75.21-3,.92-3.09S61.93,53.92,62.15,55.53Z" transform="translate(0 8.65)"/></g><g class="cls-10"><path class="cls-11" d="M64.42,52.29C70.51,54.11,74.71,58,73.82,61s-6.55,3.94-12.63,2.13-10.29-5.72-9.39-8.7S58.34,50.48,64.42,52.29Z" transform="translate(0 8.65)"/><path class="cls-12" d="M65.1,58.21c3,.89,5.06,2.8,4.62,4.27s-3.22,1.94-6.2,1.05-5.07-2.81-4.63-4.28S62.11,57.32,65.1,58.21Z" transform="translate(0 8.65)"/><path class="cls-13" d="M59.75,62.07c3,.89,5.06,2.8,4.62,4.27s-3.22,1.94-6.21,1-5.06-2.81-4.62-4.28S56.76,61.18,59.75,62.07Z" transform="translate(0 8.65)"/></g><g class="cls-14"><path class="cls-15" d="M60.47,65.22c4.89-1.72,9.19-2.17,9.6-1s-3.21,3.52-8.1,5.25-9.19,2.16-9.6,1S55.58,67,60.47,65.22Z" transform="translate(0 8.65)"/><path class="cls-16" d="M65.69,59.06c2.56.14,4.59,1.26,4.51,2.5s-2.2,2.14-4.76,2-4.6-1.26-4.53-2.51S63.12,58.92,65.69,59.06Z" transform="translate(0 8.65)"/></g><g class="cls-17"><path class="cls-18" d="M62.58,55c.26,2-.25,3.64-1.12,3.76s-1.79-1.39-2-3.35.24-3.64,1.12-3.75S62.32,53.08,62.58,55Z" transform="translate(0 8.65)"/><path class="cls-19" d="M61.77,57.93c-.43,1.68-1.46,2.86-2.32,2.65s-1.19-1.75-.77-3.43S60.15,54.29,61,54.5,62.2,56.26,61.77,57.93Z" transform="translate(0 8.65)"/><path class="cls-20" d="M64.77,56.45c-.9,3.5-2.31,6.15-3.16,5.94s-.82-3.23.06-6.72,2.31-6.16,3.16-5.94S65.66,53,64.77,56.45Z" transform="translate(0 8.65)"/></g><g class="cls-21"><path class="cls-22" d="M64.49,58.12c-2.13,4.72-4.77,8.14-5.91,7.63s-.33-4.76,1.8-9.48,4.78-8.14,5.91-7.63S66.62,53.39,64.49,58.12Z" transform="translate(0 8.65)"/><path class="cls-23" d="M67.33,57c-1.21,2.67-2.83,4.55-3.63,4.19s-.46-2.81.74-5.49,2.83-4.56,3.62-4.2S68.53,54.35,67.33,57Z" transform="translate(0 8.65)"/></g><g class="cls-24"><path class="cls-25" d="M66.56,59.45c-2.67,3-5.41,4.86-6.12,4.22s.87-3.57,3.53-6.53,5.41-4.86,6.12-4.22S69.22,56.48,66.56,59.45Z" transform="translate(0 8.65)"/><path class="cls-26" d="M68.69,60.44c-1.32,2.6-3.08,4.35-3.94,3.92s-.48-2.89.84-5.49,3.08-4.36,3.94-3.92S70,57.84,68.69,60.44Z" transform="translate(0 8.65)"/></g><g class="cls-27"><path class="cls-28" d="M64.44,77.28c-2,.68-5.89-5.35-8.62-13.47s-3.29-15.26-1.26-15.94,5.89,5.34,8.62,13.46S66.47,76.6,64.44,77.28Z" transform="translate(0 8.65)"/><path class="cls-29" d="M53.89,79c-2.12-.29-2.93-7.4-1.79-15.89S55.87,47.92,58,48.2s2.93,7.4,1.79,15.89S56,79.25,53.89,79Z" transform="translate(0 8.65)"/></g><path class="cls-30" d="M93.93,44.92c1.19,1.13,2.79.32,3.78-2.6.36-1-.36-2.92-2.59-.88A4.43,4.43,0,0,1,93.93,44.92Zm-26.6,7.25a2.55,2.55,0,0,0,.13-3c-3.66-1.43-3.58-4.29-2.34-4.77,3.79-1.45,3-5.49,3-5.49C65.3,31.15,61.36,17.34,76.66,9s42.08,2.19,40.57,18.48-8.36,21.6-11.33,28.71c-2.49,5.91-3.08,9.9-1.7,17.77,1.74,9.85-8,28.35-19.93,42.9s-27.12,28.43-39,20.81c-9.16-5.89-16.3-15.94-19.6-26.95h0a47.4,47.4,0,0,1-1.57-7s-1.42,1.67-3.49,3.64c-3.6,3.44-9.17,7.74-12.54,5.49-1.75-1.17-3.44-8.48.74-16,0,0,1.12-1.43,1.91-.05.1-.19,2-3.81,2.93-.1,5.39-11.93,11-12.71,15.6-11.62a14.21,14.21,0,0,1,5.3,3,51.23,51.23,0,0,1,9,10.14c.79-1.34,1.6-2.61,2.42-3.84h0a41.87,41.87,0,0,1-1.69-7.57c-.74-4.26-1.72-9-4.78-12.79-7.6-9.56-18.5-13.62-20.62-22l-.1-.07c1-1.43,1.93-2.61,2.74-3.7C22.27,56.58,34,62,41.9,70.51,49,78.15,46.65,85.9,49.12,90Q51,87.48,53,85.27c.84-1,1.67-1.89,2.51-2.75a6.58,6.58,0,0,1-1.38-1.09A17.12,17.12,0,0,1,50.6,74.8,34.78,34.78,0,0,1,50.24,58,34.38,34.38,0,0,1,48,51.69c-.3-2.11.85-6.78,1.8-6,.69-1.42,2-3.12,3.3-1.5,1.38-1.43,2.7-1.34,3.6.35,2.2-2.37,4.71,1.31,3.86,4.63a6,6,0,0,1,.86,2.62,4.79,4.79,0,0,1-1.72,3.93,9.93,9.93,0,0,1-1.8,1.33c-.34.19-.56.29-.56.29,1.12,2.58,2,4.88,2.73,6.85a60.5,60.5,0,0,1,2.55,8.56,42.13,42.13,0,0,1,6.79-1.69c7.85-5,13.73-6.67,14.44-8.06l0-.08a18.17,18.17,0,0,1-6.72.85c-4.81.34-5.45-5.24-6.23-6.62-1.4-2.48-3.26-2.65-1.23-3.8-1.85-.31-2.23-.78-2.31-1A.34.34,0,0,1,67.33,52.17Z" transform="translate(0 8.65)"/><path class="cls-30" d="M56.23,45.22a5.79,5.79,0,0,1,2.76,2,1.53,1.53,0,0,1,.79-.3A2.34,2.34,0,0,0,59,44.07a1.76,1.76,0,0,0-2.34.49A7.28,7.28,0,0,0,56.23,45.22Z" transform="translate(0 8.65)"/><path class="cls-30" d="M52.47,45.09a7.19,7.19,0,0,1,3.76.13,7.28,7.28,0,0,1,.45-.66c-.9-1.69-2.22-1.78-3.6-.35C53,44.29,52.71,44.74,52.47,45.09Z" transform="translate(0 8.65)"/><path class="cls-30" d="M49.78,45.71c-.49-.42-1,.65-1.41,2.06a12.94,12.94,0,0,1,1.11-1.21A8.8,8.8,0,0,1,49.78,45.71Z" transform="translate(0 8.65)"/><path class="cls-30" d="M90.62,73.76C87.53,72,78.93,69.52,69.39,71.08a42.13,42.13,0,0,0-6.79,1.69,60.5,60.5,0,0,0-2.55-8.56c-.72-2-1.61-4.27-2.73-6.85,0,0,.22-.1.56-.29l.72-.46a5,5,0,0,0,.52-5.29c-.63-1.84-.79-3-.46-3.68a1.13,1.13,0,0,1,.33-.39,5.79,5.79,0,0,0-2.76-2,7.19,7.19,0,0,0-3.76-.13,7.32,7.32,0,0,0-3,1.47,12.94,12.94,0,0,0-1.11,1.21A11.56,11.56,0,0,0,48,51.69,34.38,34.38,0,0,0,50.24,58,34.78,34.78,0,0,0,50.6,74.8a17.12,17.12,0,0,0,3.49,6.63,6.58,6.58,0,0,0,1.38,1.09c6,3.54,22.33,3.59,23.5,5.36C91.57,101.2,98,77.9,90.62,73.76Z" transform="translate(0 8.65)"/><path class="cls-30" d="M52.47,45.09c.24-.35.53-.8.61-.88-1.27-1.62-2.61.08-3.3,1.5a8.8,8.8,0,0,0-.3.85A7.32,7.32,0,0,1,52.47,45.09Z" transform="translate(0 8.65)"/><path class="cls-30" d="M115,38.73a48.74,48.74,0,0,0,2.27-11.23C118.74,11.21,92,.7,76.66,9S65.3,31.15,68.08,38.88c0,0,.83,4-3,5.49-1.24.48-1.32,3.34,2.34,4.77a2.55,2.55,0,0,1-.13,3,.34.34,0,0,0,0,.18c.08.24.46.71,2.31,1-2,1.15-.17,1.32,1.23,3.8.78,1.38,1.42,7,6.23,6.62a18.17,18.17,0,0,0,6.72-.85,23.82,23.82,0,0,0,11.73-8.17C99.94,50.11,107.49,49.55,115,38.73Zm-21,6.19a4.43,4.43,0,0,0,1.19-3.48c2.23-2,2.95-.17,2.59.88C96.72,45.24,95.12,46.05,93.93,44.92Z" transform="translate(0 8.65)"/><path class="cls-31" d="M77.64,10.32C66.8,16.21,66.19,25,67.67,32.15c3.37-5,8.93-8.58,15-10.93,11.62-3.34,24.49-2.7,33.33,5.53C116.24,12,91.78,2.63,77.64,10.32Z" transform="translate(0 8.65)"/><path class="cls-30" d="M58.66,47.64c-.33.68-.17,1.84.46,3.68a5,5,0,0,1-.52,5.29,9.81,9.81,0,0,0,1.08-.87,4.79,4.79,0,0,0,1.72-3.93,6,6,0,0,0-.86-2.62A3.62,3.62,0,0,0,58.66,47.64Z" transform="translate(0 8.65)"/><path class="cls-30" d="M59.78,47a1.34,1.34,0,0,0-1.12.69,3.62,3.62,0,0,1,1.88,1.55c.54-2.11-.29-4.37-1.52-5.12A2.34,2.34,0,0,1,59.78,47Z" transform="translate(0 8.65)"/><path class="cls-30" d="M104.2,74c-1.38-7.87-.79-11.86,1.7-17.77,2.15-5.15,6.34-9.36,9.06-17.48-7.47,10.82-15,11.38-19.42,16a23.82,23.82,0,0,1-11.73,8.17l0,.08c-.71,1.39-6.59,3.07-14.44,8.06,9.54-1.56,18.14.94,21.23,2.68C98,77.9,91.57,101.2,79,87.88c-1.17-1.77-17.52-1.82-23.5-5.36-.84.86-1.67,1.79-2.51,2.75Q51,87.48,49.12,90C46.65,85.9,49,78.15,41.9,70.51,34,62,22.27,56.58,21.57,48.29c-.81,1.09-1.77,2.27-2.74,3.7l.1.07c2.12,8.34,13,12.4,20.62,22,3.06,3.84,4,8.53,4.78,12.79A41.87,41.87,0,0,0,46,94.38h0c-.82,1.23-1.63,2.5-2.42,3.84a75.42,75.42,0,0,1,7,12.44c4,8.9,1.82,25.9-8.49,24.79,1,.8,2.06,1.55,3.13,2.24,11.87,7.62,27.11-6.26,39-20.81S105.94,83.83,104.2,74Z" transform="translate(0 8.65)"/><path class="cls-30" d="M8.82,96.87a20.81,20.81,0,0,0-1.62,3.71c1.41,3.25,3.71-.63,3.94-2.57a9,9,0,0,0-.41-1.19C9.94,95.44,8.82,96.87,8.82,96.87Z" transform="translate(0 8.65)"/><path class="cls-30" d="M13.66,96.72c-.91-3.71-2.83-.09-2.93.1h0A9,9,0,0,1,11.14,98s-.28,1.95,1,2.47C12.62,99.12,13.14,97.87,13.66,96.72Z" transform="translate(0 8.65)"/><path class="cls-30" d="M50.64,110.66a75.42,75.42,0,0,0-7-12.44,51.23,51.23,0,0,0-9-10.14,14.21,14.21,0,0,0-5.3-3,10.09,10.09,0,0,0-6,.21c-.93,3.91,0,10.93.54,15.49.11,1,.19,1.94.32,2.91a47.4,47.4,0,0,0,1.57,7h0a50.14,50.14,0,0,0,16.47,24.71C52.46,136.56,54.59,119.56,50.64,110.66Z" transform="translate(0 8.65)"/><path class="cls-30" d="M10.46,105.3c.54-1.75,1.09-3.34,1.65-4.82-1.25-.52-1-2.47-1-2.47-.23,1.94-2.53,5.82-3.94,2.57-2,6-.58,11.29.88,12.26a3.42,3.42,0,0,0,1.27.52C8.53,111.43,9.18,108.43,10.46,105.3Z" transform="translate(0 8.65)"/><path class="cls-30" d="M23.79,100.8c-.5-4.56-1.47-11.58-.54-15.49-3.1,1.16-6.38,4.31-9.59,11.41-.52,1.15-1,2.4-1.55,3.76s-1.11,3.07-1.65,4.82c-1.28,3.13-1.93,6.13-1.11,8.06,3.38.73,8.09-3,11.27-6,2.07-2,3.49-3.64,3.49-3.64C24,102.74,23.9,101.77,23.79,100.8Z" transform="translate(0 8.65)"/><path class="cls-32" d="M97.71,42.32c-1,2.92-2.59,3.73-3.78,2.6a4.43,4.43,0,0,0,1.19-3.48C97.35,39.4,98.07,41.27,97.71,42.32Z" transform="translate(0 8.65)"/><path class="cls-1" d="M25.68,110.73h0c-1.29,1.89-3.82,1.68-5.06-3.39,2.07-2,3.49-3.64,3.49-3.64A47.4,47.4,0,0,0,25.68,110.73Z" transform="translate(0 8.65)"/><path class="cls-1" d="M46,94.38c-.82,1.23-1.63,2.5-2.42,3.84a51.23,51.23,0,0,0-9-10.14c2.73-3.59,6.32-4.12,9.77-1.27A41.87,41.87,0,0,0,46,94.38Z" transform="translate(0 8.65)"/><path class="cls-1" d="M54.09,81.43a6.58,6.58,0,0,0,1.38,1.09c-.84.86-1.67,1.79-2.51,2.75-2.84-1.61-4.13-6-2.36-10.47A17.12,17.12,0,0,0,54.09,81.43Z" transform="translate(0 8.65)"/><g class="cls-33"><path class="cls-34" d="M72.77,41.67c.38.36.74.74,1.14,1a1.49,1.49,0,0,0,1.35.31,3.24,3.24,0,0,0,1.29-.74c.39-.33.76-.7,1.13-1.07l.12.11a3.05,3.05,0,0,1-.4,2,2.76,2.76,0,0,1-1.74,1.34,2.48,2.48,0,0,1-1.52-.07,2.17,2.17,0,0,1-1-.79,2.68,2.68,0,0,1-.47-2Z" transform="translate(0 8.65)"/></g><path class="cls-35" d="M72.74,41.7a12.5,12.5,0,0,1,1.44.66,1.72,1.72,0,0,0,.53.16.8.8,0,0,0,.4,0A5.71,5.71,0,0,0,76.26,42a8.51,8.51,0,0,1,1.45-.71l.06,0a11.74,11.74,0,0,1-1.09,1.14,3.59,3.59,0,0,1-1.36.83,1.72,1.72,0,0,1-1.53-.39,9.1,9.1,0,0,1-1.11-1.13Z" transform="translate(0 8.65)"/><path class="cls-36" d="M71.36,37.41a2,2,0,0,1-.07-.95,1.59,1.59,0,0,1,.3-.7c.27-.43.89-.41,1.37-.49a3.41,3.41,0,0,1,1.43.08,4.46,4.46,0,0,1,1.19.54l0,.25a6.87,6.87,0,0,0-1.09.44,3.49,3.49,0,0,0-.8.54c-.23.19-.28.6-.62.62a3.41,3.41,0,0,1-1.51-.15Z" transform="translate(0 8.65)"/><g class="cls-33"><path class="cls-37" d="M93.46,40.48a4.31,4.31,0,0,1,4.17-3.11,3.78,3.78,0,0,1,3,1.36,4.18,4.18,0,0,1,.75,3.34A9.49,9.49,0,0,1,99,46.73a7.44,7.44,0,0,1-2.1,1.58,5,5,0,0,1-1.29.4,2.11,2.11,0,0,1-1.34-.19l0-.16a2.93,2.93,0,0,0,2.08-.75A8.34,8.34,0,0,0,98,46a10.2,10.2,0,0,0,1.84-4.18,2.59,2.59,0,0,0-.37-2.12,2.71,2.71,0,0,0-1.91-1,4.34,4.34,0,0,0-3.91,1.93Z" transform="translate(0 8.65)"/></g><path class="cls-35" d="M93.5,40.51a4.48,4.48,0,0,1,4-2,2.86,2.86,0,0,1,2.08,1.05,2.92,2.92,0,0,1,.44,2.3,10.58,10.58,0,0,1-1.94,4.24,8.47,8.47,0,0,1-1.65,1.68,3,3,0,0,1-2.19.74l0-.08a3.07,3.07,0,0,0,1.91-1,8.24,8.24,0,0,0,1.4-1.71,11.7,11.7,0,0,0,1.64-4A2.13,2.13,0,0,0,99,40a2.25,2.25,0,0,0-1.51-.88,4.59,4.59,0,0,0-3.91,1.45Z" transform="translate(0 8.65)"/><path class="cls-32" d="M66.83,47.67a1,1,0,0,1,1.56.62,1.38,1.38,0,0,1-.9,0A1.31,1.31,0,0,1,66.83,47.67Z" transform="translate(0 8.65)"/><g class="cls-33"><path class="cls-37" d="M67.36,52.33a1.27,1.27,0,0,0,.76.59,5.44,5.44,0,0,0,1,.26,14.77,14.77,0,0,0,2,.32v.08A2.37,2.37,0,0,1,70,54a2.81,2.81,0,0,1-1.08,0,2.56,2.56,0,0,1-1-.47,1.87,1.87,0,0,1-.46-.47.78.78,0,0,1-.13-.68Z" transform="translate(0 8.65)"/></g><path class="cls-35" d="M67.36,52.33a2.8,2.8,0,0,0,1,.1,6.85,6.85,0,0,1,.91.11,4.35,4.35,0,0,1,.94.32,3.21,3.21,0,0,1,.94.64v.08a14.18,14.18,0,0,1-2-.24,6,6,0,0,1-1-.31,1.29,1.29,0,0,1-.78-.67Z" transform="translate(0 8.65)"/><g class="cls-33"><path class="cls-37" d="M71.62,52.48a1.14,1.14,0,0,0-.12.59,3.38,3.38,0,0,0,.07.63A8.89,8.89,0,0,0,71.81,55l-.08,0a1.44,1.44,0,0,1-.69-.5,1.41,1.41,0,0,1-.18-1.42.94.94,0,0,1,.71-.63Z" transform="translate(0 8.65)"/></g><path class="cls-35" d="M71.61,52.47a.78.78,0,0,0,0,.31c0,.1,0,.19.07.29s.07.39.12.59.05.4,0,.61a2.5,2.5,0,0,1-.1.69h0c-.12-.41-.23-.83-.31-1.25,0-.22,0-.44,0-.65a1.07,1.07,0,0,1,.17-.63Z" transform="translate(0 8.65)"/><g class="cls-38"><path class="cls-39" d="M93.5,31.29c-16.25,4.86-32,.3-35.1-10.19S65.89-1.84,82.13-6.7s32-.3,35.09,10.19S109.74,26.43,93.5,31.29Z" transform="translate(0 8.65)"/><path class="cls-40" d="M80.45,58.43C74.1,60.33,67.63,57.5,66,52.1s2.23-11.32,8.58-13.23,12.82.94,14.43,6.34S86.81,56.53,80.45,58.43Z" transform="translate(0 8.65)"/><path class="cls-41" d="M83.61,72.82c-6.35,1.9-12.61-.26-14-4.81s2.68-9.81,9-11.71,12.61.25,14,4.82S90,70.92,83.61,72.82Z" transform="translate(0 8.65)"/><path class="cls-42" d="M73.72,49.19A7.11,7.11,0,0,1,65,44.1a6.87,6.87,0,1,1,13.14-3.93A7.13,7.13,0,0,1,73.72,49.19Z" transform="translate(0 8.65)"/><path class="cls-43" d="M63.93,47.36c-1-1.09-.56-3.15,1-4.62s3.66-1.76,4.68-.68.57,3.16-1,4.62S65,48.45,63.93,47.36Z" transform="translate(0 8.65)"/><path class="cls-44" d="M73.36,49.59c-1-1.09-.56-3.16,1-4.62S78,43.21,79,44.29s.57,3.16-1,4.62S74.38,50.68,73.36,49.59Z" transform="translate(0 8.65)"/><path class="cls-45" d="M131.37,42c-2.78,16.73-13.8,28.83-24.59,27S89.47,52.18,92.25,35.45s13.8-28.82,24.6-27S134.16,25.24,131.37,42Z" transform="translate(0 8.65)"/><path class="cls-46" d="M102.52,40.52C100.72,51.34,93.59,59.16,86.61,58S75.43,47.13,77.22,36.32s8.92-18.64,15.91-17.48S104.32,29.71,102.52,40.52Z" transform="translate(0 8.65)"/><path class="cls-47" d="M80.45,23.58c-7,4-14.71,3.6-17.29-.9s1-11.39,7.93-15.39,14.71-3.6,17.29.9S87.41,19.58,80.45,23.58Z" transform="translate(0 8.65)"/><path class="cls-48" d="M96.13,54.15C100.29,41,108.37,31.86,114.19,33.7s7.17,14,3,27.11S105,83.09,99.16,81.25,92,67.28,96.13,54.15Z" transform="translate(0 8.65)"/></g><g class="cls-49"><path class="cls-45" d="M131.37,42c-2.78,16.73-13.8,28.83-24.59,27S89.47,52.18,92.25,35.45s13.8-28.82,24.6-27S134.16,25.24,131.37,42Z" transform="translate(0 8.65)"/><path class="cls-50" d="M88.18,68.76C80.24,72,72.12,70.45,70,65.34s2.65-11.9,10.59-15.14,16.06-1.7,18.14,3.43S96.11,65.53,88.18,68.76Z" transform="translate(0 8.65)"/><path class="cls-51" d="M73.23,81.9c-11.15.74-20.48-3.14-20.84-8.66S60.76,62.65,71.9,61.9s20.48,3.15,20.85,8.67S84.38,81.16,73.23,81.9Z" transform="translate(0 8.65)"/><path class="cls-52" d="M62.5,92.52C50.25,90.63,41,84.67,41.85,79.2s11.45-8.37,23.69-6.49S87,80.56,86.18,86,74.73,94.41,62.5,92.52Z" transform="translate(0 8.65)"/><path class="cls-53" d="M59.75,89.43C51.1,88.1,44.63,83.57,45.28,79.3s8.2-6.64,16.85-5.31,15.12,5.87,14.46,10.14S68.39,90.77,59.75,89.43Z" transform="translate(0 8.65)"/><path class="cls-54" d="M59.45,103.85c-7.24,6.84-16.66,8.63-21,4s-2.07-13.94,5.17-20.79,16.65-8.63,21-4S66.68,97,59.45,103.85Z" transform="translate(0 8.65)"/><path class="cls-55" d="M42.54,149.75c-8.4-5.35-12.43-14-9-19.42s13-5.41,21.42-.06,12.43,14,9,19.42S50.94,155.1,42.54,149.75Z" transform="translate(0 8.65)"/><path class="cls-56" d="M80.36,96.13C96.29,78.3,115,69,122.11,75.38s0,26-15.89,43.83S71.62,146.32,64.48,140,64.45,114,80.36,96.13Z" transform="translate(0 8.65)"/><path class="cls-57" d="M64.59,103.94c9.51-13.18,22-20.45,27.79-16.24s2.87,18.32-6.63,31.5S63.81,139.65,58,135.43,55.09,117.12,64.59,103.94Z" transform="translate(0 8.65)"/><path class="cls-48" d="M96.13,54.15C100.29,41,108.37,31.86,114.19,33.7s7.17,14,3,27.11S105,83.09,99.16,81.25,92,67.28,96.13,54.15Z" transform="translate(0 8.65)"/><path class="cls-58" d="M35.43,107.76c-3-11-1.11-21.1,4.2-22.54s12,6.31,15,17.31,1.1,21.09-4.21,22.53S38.41,118.75,35.43,107.76Z" transform="translate(0 8.65)"/><path class="cls-59" d="M41.58,90.79c6.5-9.37,13.67-15.64,16-14s-1,10.55-7.49,19.93-13.66,15.64-16,14S35.09,100.16,41.58,90.79Z" transform="translate(0 8.65)"/><path class="cls-60" d="M44.75,89.6c5.82-8.39,11.85-14.27,13.49-13.14s-1.75,8.85-7.56,17.24S38.84,108,37.2,106.83,39,98,44.75,89.6Z" transform="translate(0 8.65)"/><path class="cls-61" d="M43.27,78c-2.31-6.26-2.91-11.8-1.33-12.38s4.72,4,7,10.27,2.91,11.8,1.33,12.38S45.58,84.26,43.27,78Z" transform="translate(0 8.65)"/><path class="cls-62" d="M38.2,71.79C33.52,67,30.71,62.21,31.9,61s6,1.73,10.63,6.48S50,77.09,48.82,78.26,42.87,76.54,38.2,71.79Z" transform="translate(0 8.65)"/><path class="cls-63" d="M31.33,65.57c-5.22-4.14-8.61-8.57-7.57-9.88s6.12,1,11.35,5.12,8.61,8.57,7.57,9.88S36.56,69.72,31.33,65.57Z" transform="translate(0 8.65)"/><path class="cls-64" d="M24.83,59.35C20.1,54.65,17.05,50,18,49.06s5.61,2,10.34,6.73,7.78,9.3,6.81,10.28S29.57,64,24.83,59.35Z" transform="translate(0 8.65)"/><path class="cls-65" d="M81.44,80.45c-8.25-2.85-14-7.94-12.8-11.35s8.83-3.87,17.08-1,14,7.93,12.79,11.35S89.68,83.3,81.44,80.45Z" transform="translate(0 8.65)"/></g><g class="cls-66"><path class="cls-67" d="M71.15,80.17c-9.82-1.69-17.28-5.94-16.66-9.51s9.06-5.08,18.88-3.39,17.27,6,16.66,9.51S81,81.86,71.15,80.17Z" transform="translate(0 8.65)"/><path class="cls-68" d="M43.93,69.89c-1.9-9.77-.2-18.33,3.8-19.1s8.78,6.51,10.68,16.29.2,18.33-3.79,19.1S45.83,79.67,43.93,69.89Z" transform="translate(0 8.65)"/><path class="cls-69" d="M48.63,65.09c.24-4.6,2-8.25,3.83-8.15s3.22,3.9,3,8.5-2,8.24-3.83,8.15S48.4,69.69,48.63,65.09Z" transform="translate(0 8.65)"/><path class="cls-65" d="M81.44,80.45c-8.25-2.85-14-7.94-12.8-11.35s8.83-3.87,17.08-1,14,7.93,12.79,11.35S89.68,83.3,81.44,80.45Z" transform="translate(0 8.65)"/><path class="cls-70" d="M53.76,49.94c-6.62.25-12.06-1.48-12.15-3.86s5.21-4.53,11.82-4.78,12.05,1.48,12.14,3.87S60.37,49.69,53.76,49.94Z" transform="translate(0 8.65)"/><path class="cls-71" d="M56.52,61.35c-5.18-1.1-9-3.73-8.56-5.88s5-3,10.2-1.9,9,3.73,8.56,5.88S61.7,62.44,56.52,61.35Z" transform="translate(0 8.65)"/><path class="cls-72" d="M61.83,99.58C53.11,99.13,46.29,94,46.6,88.07s7.61-10.33,16.32-9.88,15.53,5.59,15.23,11.5S70.55,100,61.83,99.58Z" transform="translate(0 8.65)"/><path class="cls-73" d="M77.89,78c-6.87-.41-12.31-3-12.14-5.9s5.89-4.82,12.76-4.41,12.31,3.06,12.14,5.91S84.76,78.39,77.89,78Z" transform="translate(0 8.65)"/><path class="cls-74" d="M54.08,96.24c-6.87-.42-12.18-5.14-11.86-10.55s6.17-9.47,13-9.06,12.18,5.14,11.86,10.55S61,96.65,54.08,96.24Z" transform="translate(0 8.65)"/></g><g class="cls-75"><path class="cls-55" d="M42.54,149.75c-8.4-5.35-12.43-14-9-19.42s13-5.41,21.42-.06,12.43,14,9,19.42S50.94,155.1,42.54,149.75Z" transform="translate(0 8.65)"/><path class="cls-76" d="M30.55,105.2c-8.37-12.8-10.82-26-5.48-29.49s16.44,4.05,24.81,16.85,10.82,26,5.48,29.49S38.92,118,30.55,105.2Z" transform="translate(0 8.65)"/><path class="cls-77" d="M27.32,93.49c-10,.26-18.23-2.92-18.34-7.1s7.93-7.77,17.94-8,18.22,2.91,18.33,7.09S37.33,93.22,27.32,93.49Z" transform="translate(0 8.65)"/><path class="cls-78" d="M27,91.43c-5,.13-9.18-1.88-9.25-4.5s4-4.84,9-5,9.19,1.88,9.25,4.5S32,91.3,27,91.43Z" transform="translate(0 8.65)"/><path class="cls-79" d="M14.64,113.85c-2.61-11.63-.8-21.94,4.05-23S29.58,98.28,32.2,109.9s.79,21.93-4.06,23S17.25,125.46,14.64,113.85Z" transform="translate(0 8.65)"/></g><g class="cls-80"><path class="cls-77" d="M27.32,93.49c-10,.26-18.23-2.92-18.34-7.1s7.93-7.77,17.94-8,18.22,2.91,18.33,7.09S37.33,93.22,27.32,93.49Z" transform="translate(0 8.65)"/><path class="cls-81" d="M18.92,108.05c-1.4-8.63.38-16.1,4-16.69S30.55,97.3,32,105.93s-.37,16.1-4,16.69S20.33,116.68,18.92,108.05Z" transform="translate(0 8.65)"/><path class="cls-82" d="M8.19,94.21c4.74-11.13,11.3-19,14.66-17.57s2.24,11.61-2.5,22.74S9.06,118.38,5.7,117,3.46,105.34,8.19,94.21Z" transform="translate(0 8.65)"/><path class="cls-78" d="M27,91.43c-5,.13-9.18-1.88-9.25-4.5s4-4.84,9-5,9.19,1.88,9.25,4.5S32,91.3,27,91.43Z" transform="translate(0 8.65)"/></g><g class="cls-83"><path class="cls-84" d="M7.94,104.72c1.55-4,4.57-6.5,6.75-5.65s2.69,4.75,1.15,8.73-4.56,6.49-6.75,5.64S6.4,108.69,7.94,104.72Z" transform="translate(0 8.65)"/><path class="cls-85" d="M4.1,106.53c-.44-4.83.3-8.84,1.67-9s2.82,3.69,3.26,8.52-.31,8.84-1.67,9S4.54,111.36,4.1,106.53Z" transform="translate(0 8.65)"/></g><g class="cls-86"><path class="cls-87" d="M9.05,96.46c-.07-1.72.62-3.14,1.56-3.18s1.76,1.31,1.83,3-.62,3.13-1.55,3.17S9.13,98.17,9.05,96.46Z" transform="translate(0 8.65)"/></g><g class="cls-88"><path class="cls-89" d="M9.29,97.15c-.13-1.44.33-2.66,1-2.73s1.37,1,1.5,2.5-.33,2.66-1,2.72S9.42,98.59,9.29,97.15Z" transform="translate(0 8.65)"/><path class="cls-90" d="M7.11,98.13c.75-1.74,1.88-2.94,2.52-2.66s.56,1.91-.19,3.66-1.88,3-2.52,2.68S6.36,99.89,7.11,98.13Z" transform="translate(0 8.65)"/></g><g class="cls-91"><path class="cls-92" d="M61,89.68C59.3,91,54.82,88.05,51,83.11s-5.54-10-3.85-11.32,6.17,1.63,10,6.57S62.68,88.37,61,89.68Z" transform="translate(0 8.65)"/><path class="cls-93" d="M46.74,92.35c-1.57-1.46.61-6.35,4.85-10.92s9-7.11,10.54-5.65-.6,6.35-4.85,10.92S48.31,93.81,46.74,92.35Z" transform="translate(0 8.65)"/></g><g class="cls-94"><path class="cls-95" d="M59.49,46.38c-1.78,2.77-4.15,4.42-5.3,3.69s-.64-3.58,1.14-6.36,4.14-4.42,5.29-3.69S61.26,43.6,59.49,46.38Z" transform="translate(0 8.65)"/><path class="cls-96" d="M55.65,44.49c-2.33,1.36-4.68,1.69-5.25.72s.87-2.86,3.2-4.22,4.7-1.69,5.26-.72S58,43.12,55.65,44.49Z" transform="translate(0 8.65)"/></g><g class="cls-97"><path class="cls-98" d="M55.52,45.72c-1.15,2.71-3,4.52-4.11,4s-1.1-3.06.05-5.77,3-4.52,4.11-4S56.67,43,55.52,45.72Z" transform="translate(0 8.65)"/></g><g class="cls-99"><path class="cls-100" d="M60.37,48.33c.53,3.26-.13,6.07-1.47,6.29S56,52.39,55.49,49.13s.12-6.06,1.47-6.28S59.83,45.08,60.37,48.33Z" transform="translate(0 8.65)"/></g><g class="cls-101"><path class="cls-102" d="M60.86,46.69c2,2.59,2.83,5.37,1.76,6.22S59,52.34,57,49.75s-2.82-5.37-1.75-6.21S58.82,44.11,60.86,46.69Z" transform="translate(0 8.65)"/></g><g class="cls-103"><path class="cls-104" d="M59,45.67c-1.54,1.1-3.23,1.38-3.77.62S55.49,44,57,42.92s3.23-1.37,3.77-.62S60.54,44.57,59,45.67Z" transform="translate(0 8.65)"/></g><g class="cls-105"><path class="cls-106" d="M28.52,118.33c-2.06.61-5.16-3.75-6.92-9.75s-1.54-11.33.51-11.94,5.16,3.76,6.93,9.75S30.57,117.72,28.52,118.33Z" transform="translate(0 8.65)"/><path class="cls-107" d="M14.75,113.94c-1.65-1.38.27-6.37,4.29-11.15s8.59-7.56,10.24-6.18S29,103,25,107.77,16.39,115.32,14.75,113.94Z" transform="translate(0 8.65)"/></g><g class="cls-108"><path class="cls-109" d="M37.3,105.42c-1.64-1.37.28-6.37,4.3-11.15s8.59-7.55,10.23-6.17-.28,6.37-4.29,11.15S38.94,106.8,37.3,105.42Z" transform="translate(0 8.65)"/><path class="cls-110" d="M48.27,102c-2.05.64-5.21-3.68-7.07-9.64s-1.71-11.3.34-12,5.21,3.68,7.07,9.64S50.32,101.41,48.27,102Z" transform="translate(0 8.65)"/><path class="cls-111" d="M49.6,105.48c-2.16,2.1-8.22-.62-13.52-6.08S28.2,87.81,30.35,85.71s8.22.62,13.53,6.08S51.76,103.38,49.6,105.48Z" transform="translate(0 8.65)"/><path class="cls-112" d="M44.29,89.68C42.13,91.78,38,91,35,88s-3.61-7.2-1.45-9.31,6.3-1.34,9.26,1.7S46.45,87.58,44.29,89.68Z" transform="translate(0 8.65)"/></g></g></g></g></svg>